<svg viewBox="0 0 24 25" xmlns="http://www.w3.org/2000/svg" xmlns:xlink="http://www.w3.org/1999/xlink"><style>:root&gt;svg{display:none}:root&gt;svg:target{display:block}</style><svg viewBox="0 0 24 25" id="favourite" xmlns="http://www.w3.org/2000/svg"><path opacity=".54" fill-rule="evenodd" clip-rule="evenodd" d="M17.5 1c-2.444 0-4.644 1.788-5.5 4.125C11.144 2.788 8.944 1 6.5 1 3.444 1 1 3.612 1 7.188 1 12 5.278 16.124 12 23c6.722-6.875 11-11 11-15.813C23 3.612 20.556 1 17.5 1z" stroke="#000" stroke-width="2"/></svg><svg viewBox="0 0 23 23" id="search" xmlns="http://www.w3.org/2000/svg"><path opacity=".54" fill-rule="evenodd" clip-rule="evenodd" d="M16.378 14.5h-.993l-.345-.342A8.086 8.086 0 0017 8.875 8.125 8.125 0 008.875.75 8.125 8.125 0 00.75 8.875 8.125 8.125 0 008.875 17c2.019 0 3.86-.74 5.281-1.957l.345.342v.99l6.248 6.239 1.864-1.864-6.235-6.25zm-7.503 0a5.625 5.625 0 110-11.25 5.625 5.625 0 010 11.25z"/></svg></svg>